<svg xmlns="http://www.w3.org/2000/svg" xml:space="preserve" style="fill:#fff" viewBox="0 0 511.998 511.998"><path d="M94.931 443.028V314.186c6.872.67 14.977 1.018 23.822 1.018 53.91 0 97.499-14.221 126.068-41.14 23.403-22.233 36.296-55.357 36.296-93.266 0-36.819-15.399-70.111-42.222-91.321-26.369-21.091-65.118-31.345-118.461-31.345-46.209 0-85.256 2.658-116.066 7.903A5.245 5.245 0 0 0 0 71.208v371.82c0 2.9 2.349 5.249 5.249 5.249h84.433a5.25 5.25 0 0 0 5.249-5.249m0-205.059V135.226c5.155-.989 14.836-2.297 29.972-2.297 38.95 0 61.288 18.263 61.288 50.104 0 35.223-25.416 56.255-67.997 56.255-10.214 0-17.489-.403-23.263-1.319m339.189 32.925c-34.787-12.174-40.655-17.971-40.655-26.357 0-14.893 17.026-17.116 27.18-17.116 21.559 0 44.048 8.088 56.755 15.012a5.25 5.25 0 0 0 4.604.206 5.26 5.26 0 0 0 2.99-3.506l15.098-58.704a5.25 5.25 0 0 0-2.736-6.001c-15.674-7.836-44.789-16.211-79.511-16.211-68.603 0-116.517 38.946-116.517 94.62-.464 27.163 13.263 64.352 81.308 87.257 33.052 11.019 36.67 16.745 36.67 26.334 0 4.371 0 17.675-31.093 17.675-23.293 0-54.742-10.345-70.523-19.928a5.25 5.25 0 0 0-4.728-.365 5.26 5.26 0 0 0-3.093 3.59l-15.094 60.948a5.25 5.25 0 0 0 2.599 5.879c23.092 12.48 56.203 19.64 90.839 19.64 76.353 0 123.784-35.862 123.784-93.66-.604-43.445-24.632-70.992-77.877-89.313" style="fill:#fff"/></svg>